<svg xmlns="http://www.w3.org/2000/svg" viewBox="0 0 512 512" role="img" aria-labelledby="title desc"><title id="title">MarketFix mark</title><desc id="desc">A red circular MarketFix megaphone mark.</desc><defs><linearGradient id="g" x1="80" y1="40" x2="430" y2="470" gradientUnits="userSpaceOnUse"><stop stop-color="#ff4b48"/><stop offset="1" stop-color="#911311"/></linearGradient><radialGradient id="h" cx="34%" cy="18%" r="70%"><stop stop-color="#fff" stop-opacity=".42"/><stop offset=".45" stop-color="#fff" stop-opacity=".04"/><stop offset="1" stop-color="#fff" stop-opacity="0"/></radialGradient></defs><rect width="512" height="512" rx="118" fill="#08080b"/><circle cx="256" cy="256" r="174" fill="url(#g)"/><circle cx="256" cy="256" r="174" fill="url(#h)"/><path fill="#fff" d="M123 279h62l13 96c2 10 10 17 20 17h35l-16-113h25l150 68c22 10 47-6 47-31V143c0-25-25-41-47-31l-150 68H123c-22 0-39 17-39 39v21c0 22 17 39 39 39Zm183-62 96-44v129l-96-44v-41Zm-170 1h59v55h-59v-55Zm318 2h7a57 57 0 0 1 0 114h-7v-35h7a22 22 0 0 0 0-44h-7v-35Z"/></svg>
